<!DOCTYPE svg PUBLIC "-//W3C//DTD SVG 1.1//EN" "https://www.w3.org/Graphics/SVG/1.1/DTD/svg11.dtd"><svg xmlns="http://www.w3.org/2000/svg" class="sc-dPZUQH jihETP graph" data-testid="graph" role="img" aria-labelledby="polymath-graph-title" width="876" height="732"><title id="polymath-graph-title">Gráfico de máquinas de estado do Workflow Studio</title><g transform="translate(12,12)" class="new-look-graph"><g class="nodes"><g class="node-container" transform="translate(426,22)"><g><circle class="sc-bypJrT bAjEpG shape" r="22"/><text class="sc-klVQfs jVDEHP label"><tspan xml:space="preserve" text-anchor="middle" alignment-baseline="central">Start</tspan></text></g></g><g class="node-container" transform="translate(426,103.5)"><g class="sc-koXPp cTtpGI node state Task" data-testid="graph-ReceberSolicitacao" data-state-id="ReceberSolicitacao" data-state-type="Task"><g class="new-look-state-node has-errors"><rect x="-123.5" y="-24.5" width="247" height="49" rx="3" ry="3"/><g class="handle" transform="translate(-123.5,-24.5)"><path d="M5,16 L5,34 M8,16 L8,34"/></g><g class="icon" transform="translate(-107.5,-24)"><rect fill="var(--color-background-container-header-9ekpze, #fafafa)" x="0.0361026108" y="0.0181291967" width="48" height="48"/><line x1="47.5" y1="0.49122807" x2="47.5" y2="47.5" stroke="var(--color-board-placeholder-active-e71qda, #d5dbdb)" stroke-linecap="square"/><line x1="0.5" y1="0.49122807" x2="0.5" y2="47.5" stroke="var(--color-board-placeholder-active-e71qda, #d5dbdb)" stroke-linecap="square"/><use href="#icon-generic"/></g><g class="text-lines" transform="translate(-51.5,-24.5)"><text transform="translate(0,17)" class="line1"><tspan xml:space="preserve" text-anchor="start"/></text><text transform="translate(0,35.5)" class="line2 label"><tspan xml:space="preserve" text-anchor="start">ReceberSolicitacao</tspan></text></g><g class="error-icon" transform="translate(87.5,-8)"><circle cx="8" cy="8" r="7"/><path d="M10.828 5.172l-5.656 5.656M10.828 10.828L5.172 5.172"/></g></g></g></g><g class="node-container" transform="translate(426,354)"><g class="sc-koXPp cTtpGI node state container Parallel" data-testid="graph-ProcessarWorkflow" data-state-id="ProcessarWorkflow" data-state-type="Parallel"><g class="new-look-state-node "><g class="bounding-box" transform="translate(0,5)"><rect class="sc-dSCufp eyBinF shape" rx="7" ry="7" x="-426" y="-191" width="852" height="377"/><g class="content" transform="translate(-426,-191)"><g class="branch" transform="translate(20,89)"><g class="branchInsertArea" data-insertion-index="0" data-parent-state-id="ProcessarWorkflow" id="ProcessarWorkflow:0" x="-20" y="0" width="20" height="268"><rect x="-20" y="0" width="20" height="268" stroke="none" fill="none"/><path d="M-10,0 l0,268" stroke="none" fill="none"/></g><g transform=""><g class="nodes"><g class="node-container" transform="translate(120,24.5)"><g class="sc-koXPp cTtpGI node state Task" data-testid="graph-ArmazenarNoDynamoDB" data-state-id="ArmazenarNoDynamoDB" data-state-type="Task"><g class="new-look-state-node "><rect x="-120" y="-24.5" width="240" height="49" rx="3" ry="3"/><g class="handle" transform="translate(-120,-24.5)"><path d="M5,16 L5,34 M8,16 L8,34"/></g><g class="icon" transform="translate(-104,-24)"><rect fill="var(--color-background-container-header-9ekpze, #fafafa)" x="0.0361026108" y="0.0181291967" width="48" height="48"/><line x1="47.5" y1="0.49122807" x2="47.5" y2="47.5" stroke="var(--color-board-placeholder-active-e71qda, #d5dbdb)" stroke-linecap="square"/><line x1="0.5" y1="0.49122807" x2="0.5" y2="47.5" stroke="var(--color-board-placeholder-active-e71qda, #d5dbdb)" stroke-linecap="square"/><use href="#icon-generic"/></g><g class="text-lines" transform="translate(-48,-24.5)"><text transform="translate(0,17)" class="line1"><tspan xml:space="preserve" text-anchor="start"/></text><text transform="translate(0,35.5)" class="line2 label"><tspan xml:space="preserve" text-anchor="start">ArmazenarNoDynamoDB</tspan></text></g></g></g></g><g class="node-container" transform="translate(120,108.5)"><g class="sc-koXPp cTtpGI node state Task" data-testid="graph-ConsultarAthena" data-state-id="ConsultarAthena" data-state-type="Task"><g class="new-look-state-node "><rect x="-120" y="-24.5" width="240" height="49" rx="3" ry="3"/><g class="handle" transform="translate(-120,-24.5)"><path d="M5,16 L5,34 M8,16 L8,34"/></g><g class="icon" transform="translate(-104,-24)"><rect fill="var(--color-background-container-header-9ekpze, #fafafa)" x="0.0361026108" y="0.0181291967" width="48" height="48"/><line x1="47.5" y1="0.49122807" x2="47.5" y2="47.5" stroke="var(--color-board-placeholder-active-e71qda, #d5dbdb)" stroke-linecap="square"/><line x1="0.5" y1="0.49122807" x2="0.5" y2="47.5" stroke="var(--color-board-placeholder-active-e71qda, #d5dbdb)" stroke-linecap="square"/><use href="#icon-generic"/></g><g class="text-lines" transform="translate(-48,-24.5)"><text transform="translate(0,17)" class="line1"><tspan xml:space="preserve" text-anchor="start"/></text><text transform="translate(0,35.5)" class="line2 label"><tspan xml:space="preserve" text-anchor="start">ConsultarAthena</tspan></text></g></g></g></g><g class="node-container" transform="translate(120,192.5)"><g class="sc-koXPp cTtpGI node state Pass" data-testid="graph-VisualizarNoQuickSight" data-state-id="VisualizarNoQuickSight" data-state-type="Pass"><g class="new-look-state-node "><rect x="-120" y="-24.5" width="240" height="49" rx="3" ry="3"/><g class="handle" transform="translate(-120,-24.5)"><path d="M5,16 L5,34 M8,16 L8,34"/></g><g class="icon" transform="translate(-104,-24)"><rect fill="var(--color-background-container-header-9ekpze, #fafafa)" x="0.0361026108" y="0.0181291967" width="48" height="48"/><line x1="47.5" y1="0.49122807" x2="47.5" y2="47.5" stroke="var(--color-board-placeholder-active-e71qda, #d5dbdb)" stroke-linecap="square"/><line x1="0.5" y1="0.49122807" x2="0.5" y2="47.5" stroke="var(--color-board-placeholder-active-e71qda, #d5dbdb)" stroke-linecap="square"/><use href="#icon-flow-pass"/></g><g class="text-lines" transform="translate(-48,-24.5)"><text transform="translate(0,17)" class="line1"><tspan xml:space="preserve" text-anchor="start">Pass state</tspan></text><text transform="translate(0,35.5)" class="line2 label"><tspan xml:space="preserve" text-anchor="start">VisualizarNoQuickSight</tspan></text></g></g></g></g><g class="node-container" transform="translate(120,260)"><g><circle class="sc-ddjGPC zsviL shape" r="8"/></g></g></g><g class="edges"><g class="sc-bmzYkS jsFWx edge"><path id="state-ArmazenarNoDynamoDB:state-ConsultarAthena:normal" d="M120,49L120,51.916666666666664C120,54.833333333333336,120,60.666666666666664,120,66.5C120,72.33333333333333,120,78.16666666666667,120,81.08333333333333L120,84" marker-end="url(#arrowhead)" fill="none"/></g><g class="sc-bmzYkS jsFWx edge"><path id="state-ConsultarAthena:state-VisualizarNoQuickSight:normal" d="M120,133L120,135.91666666666666C120,138.83333333333334,120,144.66666666666666,120,150.5C120,156.33333333333334,120,162.16666666666666,120,165.08333333333334L120,168" marker-end="url(#arrowhead)" fill="none"/></g><g class="sc-bmzYkS jsFWx edge"><path id="state-VisualizarNoQuickSight:end:normal" d="M120,217L120,219.91666666666666C120,222.83333333333334,120,228.66666666666666,120,234.5C120,240.33333333333334,120,246.16666666666666,120,249.08333333333334L120,252" marker-end="url(#arrowhead)" fill="none"/></g></g></g><g class="branchInsertArea" data-insertion-index="1" data-parent-state-id="ProcessarWorkflow" id="ProcessarWorkflow:1" x="240" y="0" width="20" height="268"><rect x="240" y="0" width="20" height="268" stroke="none" fill="none"/><path d="M250,0 l0,268" stroke="none" fill="none"/></g></g><g class="branch" transform="translate(280,89)"><g transform=""><g class="nodes"><g class="node-container" transform="translate(146,24.5)"><g class="sc-koXPp cTtpGI node state Task" data-testid="graph-ArquivarNoS3Glacier" data-state-id="ArquivarNoS3Glacier" data-state-type="Task"><g class="new-look-state-node "><rect x="-120" y="-24.5" width="240" height="49" rx="3" ry="3"/><g class="handle" transform="translate(-120,-24.5)"><path d="M5,16 L5,34 M8,16 L8,34"/></g><g class="icon" transform="translate(-104,-24)"><rect fill="var(--color-background-container-header-9ekpze, #fafafa)" x="0.0361026108" y="0.0181291967" width="48" height="48"/><line x1="47.5" y1="0.49122807" x2="47.5" y2="47.5" stroke="var(--color-board-placeholder-active-e71qda, #d5dbdb)" stroke-linecap="square"/><line x1="0.5" y1="0.49122807" x2="0.5" y2="47.5" stroke="var(--color-board-placeholder-active-e71qda, #d5dbdb)" stroke-linecap="square"/><use href="#icon-generic"/></g><g class="text-lines" transform="translate(-48,-24.5)"><text transform="translate(0,17)" class="line1"><tspan xml:space="preserve" text-anchor="start"/></text><text transform="translate(0,35.5)" class="line2 label"><tspan xml:space="preserve" text-anchor="start">ArquivarNoS3Glacier</tspan></text></g></g></g></g><g class="node-container" transform="translate(146,108.5)"><g class="sc-koXPp cTtpGI node state Task" data-testid="graph-GerenciarEventoComEventBridge" data-state-id="GerenciarEventoComEventBridge" data-state-type="Task"><g class="new-look-state-node "><rect x="-146" y="-24.5" width="292" height="49" rx="3" ry="3"/><g class="handle" transform="translate(-146,-24.5)"><path d="M5,16 L5,34 M8,16 L8,34"/></g><g class="icon" transform="translate(-130,-24)"><rect fill="var(--color-background-container-header-9ekpze, #fafafa)" x="0.0361026108" y="0.0181291967" width="48" height="48"/><line x1="47.5" y1="0.49122807" x2="47.5" y2="47.5" stroke="var(--color-board-placeholder-active-e71qda, #d5dbdb)" stroke-linecap="square"/><line x1="0.5" y1="0.49122807" x2="0.5" y2="47.5" stroke="var(--color-board-placeholder-active-e71qda, #d5dbdb)" stroke-linecap="square"/><use href="#icon-generic"/></g><g class="text-lines" transform="translate(-74,-24.5)"><text transform="translate(0,17)" class="line1"><tspan xml:space="preserve" text-anchor="start"/></text><text transform="translate(0,35.5)" class="line2 label"><tspan xml:space="preserve" text-anchor="start">GerenciarEventoComEventBridge</tspan></text></g></g></g></g><g class="node-container" transform="translate(146,192.5)"><g class="sc-koXPp cTtpGI node state Task" data-testid="graph-ExecutarModeloML" data-state-id="ExecutarModeloML" data-state-type="Task"><g class="new-look-state-node "><rect x="-120" y="-24.5" width="240" height="49" rx="3" ry="3"/><g class="handle" transform="translate(-120,-24.5)"><path d="M5,16 L5,34 M8,16 L8,34"/></g><g class="icon" transform="translate(-104,-24)"><rect fill="var(--color-background-container-header-9ekpze, #fafafa)" x="0.0361026108" y="0.0181291967" width="48" height="48"/><line x1="47.5" y1="0.49122807" x2="47.5" y2="47.5" stroke="var(--color-board-placeholder-active-e71qda, #d5dbdb)" stroke-linecap="square"/><line x1="0.5" y1="0.49122807" x2="0.5" y2="47.5" stroke="var(--color-board-placeholder-active-e71qda, #d5dbdb)" stroke-linecap="square"/><use href="#icon-generic"/></g><g class="text-lines" transform="translate(-48,-24.5)"><text transform="translate(0,17)" class="line1"><tspan xml:space="preserve" text-anchor="start"/></text><text transform="translate(0,35.5)" class="line2 label"><tspan xml:space="preserve" text-anchor="start">ExecutarModeloML</tspan></text></g></g></g></g><g class="node-container" transform="translate(146,260)"><g><circle class="sc-ddjGPC zsviL shape" r="8"/></g></g></g><g class="edges"><g class="sc-bmzYkS jsFWx edge"><path id="state-ArquivarNoS3Glacier:state-GerenciarEventoComEventBridge:normal" d="M146,49L146,51.916666666666664C146,54.833333333333336,146,60.666666666666664,146,66.5C146,72.33333333333333,146,78.16666666666667,146,81.08333333333333L146,84" marker-end="url(#arrowhead)" fill="none"/></g><g class="sc-bmzYkS jsFWx edge"><path id="state-GerenciarEventoComEventBridge:state-ExecutarModeloML:normal" d="M146,133L146,135.91666666666666C146,138.83333333333334,146,144.66666666666666,146,150.5C146,156.33333333333334,146,162.16666666666666,146,165.08333333333334L146,168" marker-end="url(#arrowhead)" fill="none"/></g><g class="sc-bmzYkS jsFWx edge"><path id="state-ExecutarModeloML:end:normal" d="M146,217L146,219.91666666666666C146,222.83333333333334,146,228.66666666666666,146,234.5C146,240.33333333333334,146,246.16666666666666,146,249.08333333333334L146,252" marker-end="url(#arrowhead)" fill="none"/></g></g></g><g class="branchInsertArea" data-insertion-index="2" data-parent-state-id="ProcessarWorkflow" id="ProcessarWorkflow:2" x="292" y="0" width="20" height="268"><rect x="292" y="0" width="20" height="268" stroke="none" fill="none"/><path d="M302,0 l0,268" stroke="none" fill="none"/></g></g><g class="branch" transform="translate(592,89)"><g transform=""><g class="nodes"><g class="node-container" transform="translate(120,24.5)"><g class="sc-koXPp cTtpGI node state Task" data-testid="graph-EnviarEmailComSES" data-state-id="EnviarEmailComSES" data-state-type="Task"><g class="new-look-state-node "><rect x="-120" y="-24.5" width="240" height="49" rx="3" ry="3"/><g class="handle" transform="translate(-120,-24.5)"><path d="M5,16 L5,34 M8,16 L8,34"/></g><g class="icon" transform="translate(-104,-24)"><rect fill="var(--color-background-container-header-9ekpze, #fafafa)" x="0.0361026108" y="0.0181291967" width="48" height="48"/><line x1="47.5" y1="0.49122807" x2="47.5" y2="47.5" stroke="var(--color-board-placeholder-active-e71qda, #d5dbdb)" stroke-linecap="square"/><line x1="0.5" y1="0.49122807" x2="0.5" y2="47.5" stroke="var(--color-board-placeholder-active-e71qda, #d5dbdb)" stroke-linecap="square"/><use href="#icon-generic"/></g><g class="text-lines" transform="translate(-48,-24.5)"><text transform="translate(0,17)" class="line1"><tspan xml:space="preserve" text-anchor="start"/></text><text transform="translate(0,35.5)" class="line2 label"><tspan xml:space="preserve" text-anchor="start">EnviarEmailComSES</tspan></text></g></g></g></g><g class="node-container" transform="translate(120,92)"><g><circle class="sc-ddjGPC zsviL shape" r="8"/></g></g></g><g class="edges"><g class="sc-bmzYkS jsFWx edge"><path id="state-EnviarEmailComSES:end:normal" d="M120,49L120,51.916666666666664C120,54.833333333333336,120,60.666666666666664,120,66.5C120,72.33333333333333,120,78.16666666666667,120,81.08333333333333L120,84" marker-end="url(#arrowhead)" fill="none"/></g></g></g><g class="branchInsertArea" data-insertion-index="3" data-parent-state-id="ProcessarWorkflow" id="ProcessarWorkflow:3" x="240" y="0" width="20" height="268"><rect x="240" y="0" width="20" height="268" stroke="none" fill="none"/><path d="M250,0 l0,268" stroke="none" fill="none"/></g></g><g class="sc-bmzYkS jsFWx"><path id="ProcessarWorkflow-ArmazenarNoDynamoDB" class="path starting-connection" d="M426,44L426,47.75C426,51.5,426,59,378.3333333333333,62.75C330.6666666666667,66.5,235.33333333333334,66.5,187.66666666666666,70.25C140,74,140,81.5,140,85.25L140,89" fill="none"/></g><g class="sc-bmzYkS jsFWx"><path id="ProcessarWorkflow-ArquivarNoS3Glacier" class="path starting-connection" d="M426,44L426,47.75C426,51.5,426,59,426,62.75C426,66.5,426,66.5,426,70.25C426,74,426,81.5,426,85.25L426,89" fill="none"/></g><g class="sc-bmzYkS jsFWx"><path id="ProcessarWorkflow-EnviarEmailComSES" class="path starting-connection" d="M426,44L426,47.75C426,51.5,426,59,473.6666666666667,62.75C521.3333333333334,66.5,616.6666666666666,66.5,664.3333333333334,70.25C712,74,712,81.5,712,85.25L712,89" fill="none"/></g></g></g><g class="new-look-state-node "><rect x="-120" y="-191" width="240" height="49" rx="3" ry="3"/><g class="handle" transform="translate(-120,-191)"><path d="M5,16 L5,34 M8,16 L8,34"/></g><g class="icon" transform="translate(-104,-190.5)"><rect fill="var(--color-background-container-header-9ekpze, #fafafa)" x="0.0361026108" y="0.0181291967" width="48" height="48"/><line x1="47.5" y1="0.49122807" x2="47.5" y2="47.5" stroke="var(--color-board-placeholder-active-e71qda, #d5dbdb)" stroke-linecap="square"/><line x1="0.5" y1="0.49122807" x2="0.5" y2="47.5" stroke="var(--color-board-placeholder-active-e71qda, #d5dbdb)" stroke-linecap="square"/><use href="#icon-flow-parallel"/></g><g class="text-lines" transform="translate(-48,-191)"><text transform="translate(0,17)" class="line1"><tspan xml:space="preserve" text-anchor="start">Parallel state</tspan></text><text transform="translate(0,35.5)" class="line2 label"><tspan xml:space="preserve" text-anchor="start">ProcessarWorkflow</tspan></text></g></g></g></g></g><g class="node-container" transform="translate(426,604.5)"><g class="sc-koXPp cTtpGI node state Task" data-testid="graph-EnviarRespostaParaUsuario" data-state-id="EnviarRespostaParaUsuario" data-state-type="Task"><g class="new-look-state-node has-errors"><rect x="-150.5" y="-24.5" width="301" height="49" rx="3" ry="3"/><g class="handle" transform="translate(-150.5,-24.5)"><path d="M5,16 L5,34 M8,16 L8,34"/></g><g class="icon" transform="translate(-134.5,-24)"><rect fill="var(--color-background-container-header-9ekpze, #fafafa)" x="0.0361026108" y="0.0181291967" width="48" height="48"/><line x1="47.5" y1="0.49122807" x2="47.5" y2="47.5" stroke="var(--color-board-placeholder-active-e71qda, #d5dbdb)" stroke-linecap="square"/><line x1="0.5" y1="0.49122807" x2="0.5" y2="47.5" stroke="var(--color-board-placeholder-active-e71qda, #d5dbdb)" stroke-linecap="square"/><use href="#icon-generic"/></g><g class="text-lines" transform="translate(-78.5,-24.5)"><text transform="translate(0,17)" class="line1"><tspan xml:space="preserve" text-anchor="start"/></text><text transform="translate(0,35.5)" class="line2 label"><tspan xml:space="preserve" text-anchor="start">EnviarRespostaParaUsuario</tspan></text></g><g class="error-icon" transform="translate(114.5,-8)"><circle cx="8" cy="8" r="7"/><path d="M10.828 5.172l-5.656 5.656M10.828 10.828L5.172 5.172"/></g></g></g></g><g class="node-container" transform="translate(426,686)"><g><circle class="sc-bypJrT bAjEpG shape" r="22"/><text class="sc-klVQfs jVDEHP label"><tspan xml:space="preserve" text-anchor="middle" alignment-baseline="central">End</tspan></text></g></g></g><g class="edges"><g class="sc-bmzYkS jsFWx edge"><path id="state-ReceberSolicitacao:state-ProcessarWorkflow:normal" d="M426,128L426,130.91666666666666C426,133.83333333333334,426,139.66666666666666,426,145.5C426,151.33333333333334,426,157.16666666666666,426,160.08333333333334L426,163" marker-end="url(#arrowhead)" fill="none"/></g><g class="sc-bmzYkS jsFWx edge"><path id="start:state-ReceberSolicitacao" d="M426,44L426,46.916666666666664C426,49.833333333333336,426,55.666666666666664,426,61.5C426,67.33333333333333,426,73.16666666666667,426,76.08333333333333L426,79" marker-end="url(#arrowhead)" fill="none"/></g><g class="sc-bmzYkS jsFWx edge"><path id="state-ProcessarWorkflow:state-EnviarRespostaParaUsuario:normal" d="M426,545L426,547.9166666666666C426,550.8333333333334,426,556.6666666666666,426,562.5C426,568.3333333333334,426,574.1666666666666,426,577.0833333333334L426,580" marker-end="url(#arrowhead)" fill="none"/></g><g class="sc-bmzYkS jsFWx edge"><path id="state-EnviarRespostaParaUsuario:end:normal" d="M426,629L426,631.9166666666666C426,634.8333333333334,426,640.6666666666666,426,646.5C426,652.3333333333334,426,658.1666666666666,426,661.0833333333334L426,664" marker-end="url(#arrowhead)" fill="none"/></g></g><defs><marker id="arrowhead" markerWidth="8" markerHeight="6" refX="7" refY="3" orient="auto" class="sc-iHbSHJ iZkxaE"><polygon points="0 0, 8 3, 0 6"/></marker><marker id="highlighted-arrowhead" markerWidth="6" markerHeight="4" refX="5" refY="2" orient="auto" class="sc-iHbSHJ iZkxaE"><polygon points="0 0, 6 2, 0 4"/></marker><marker id="error-arrowhead" markerWidth="6" markerHeight="4" refX="5" refY="2" orient="auto" class="sc-iHbSHJ iZkxaE"><polygon points="0 0, 6 2, 0 4"/></marker><marker id="large-arrowhead" markerWidth="10" markerHeight="8" refX="9" refY="4" orient="auto" class="sc-iHbSHJ iZkxaE"><polygon points="0 0, 10 4, 0 8"/></marker><marker id="large-highlighted-arrowhead" markerWidth="5.5" markerHeight="4" refX="4.5" refY="2" orient="auto" class="sc-iHbSHJ iZkxaE"><polygon points="0 0, 5.5 2, 0 4"/></marker><marker id="large-error-arrowhead" markerWidth="10" markerHeight="8" refX="9" refY="4" orient="auto" class="sc-iHbSHJ iZkxaE"><polygon points="0 0, 10 4, 0 8"/></marker><linearGradient x1="0%" y1="100%" x2="100%" y2="0%" id="gradient-orange"><stop stop-color="#C8511B" offset="0%"/><stop stop-color="#FF9900" offset="100%"/></linearGradient><linearGradient x1="0%" y1="100%" x2="100%" y2="0%" id="gradient-turquoise"><stop stop-color="#055F4E" offset="0%"/><stop stop-color="#56C0A7" offset="100%"/></linearGradient><linearGradient x1="0%" y1="100%" x2="100%" y2="0%" id="gradient-blue"><stop stop-color="#2E27AD" offset="0%"/><stop stop-color="#527FFF" offset="100%"/></linearGradient><linearGradient x1="0%" y1="100%" x2="100%" y2="0%" id="gradient-pink"><stop stop-color="#B0084D" offset="0%"/><stop stop-color="#FF4F8B" offset="100%"/></linearGradient><linearGradient x1="0%" y1="100%" x2="100%" y2="0%" id="gradient-red"><stop stop-color="#BD0816" offset="0%"/><stop stop-color="#FF5252" offset="100%"/></linearGradient><linearGradient x1="0%" y1="100%" x2="100%" y2="0%" id="gradient-green"><stop stop-color="#1B660F" offset="0%"/><stop stop-color="#6CAE3E" offset="100%"/></linearGradient><linearGradient x1="0%" y1="100%" x2="100%" y2="0%" id="gradient-purple"><stop stop-color="#4D27A8" offset="0%"/><stop stop-color="#A166FF" offset="100%"/></linearGradient><linearGradient x1="0%" y1="100%" x2="100%" y2="0%" id="gradient-grey"><stop stop-color="#DCDCDC" offset="0%"/><stop stop-color="#F6F5F7" offset="100%"/></linearGradient>,<linearGradient x1="0%" y1="100%" x2="100%" y2="0%" id="gradient-ag"><stop stop-color="#BC1356" offset="0%"/><stop stop-color="#F34482" offset="100%"/></linearGradient><linearGradient x1="0%" y1="100%" x2="100%" y2="0%" id="gradient-athena"><stop stop-color="#5930B5" offset="0%"/><stop stop-color="#945DF2" offset="100%"/></linearGradient><linearGradient x1="0%" y1="100%" x2="100%" y2="0%" id="gradient-emr"><stop stop-color="#5930B5" offset="0%"/><stop stop-color="#945DF2" offset="100%"/></linearGradient><linearGradient x1="0%" y1="100%" x2="100%" y2="0%" id="gradient-glue"><stop stop-color="#5930B5" offset="0%"/><stop stop-color="#945DF2" offset="100%"/></linearGradient><linearGradient x1="0%" y1="100%" x2="100%" y2="0%" id="gradient-sns"><stop stop-color="#BC1356" offset="0%"/><stop stop-color="#F34482" offset="100%"/></linearGradient><linearGradient x1="0%" y1="100%" x2="100%" y2="0%" id="gradient-states"><stop stop-color="#BC1356" offset="0%"/><stop stop-color="#F34482" offset="100%"/></linearGradient><linearGradient x1="0%" y1="100%" x2="100%" y2="0%" id="gradient-generic"><stop stop-color="#ccc" offset="0%"/><stop stop-color="#ddd" offset="100%"/></linearGradient><g stroke="none" stroke-width="1" fill="none" fill-rule="evenodd" id="icon-flow-pass"><g transform="translate(10.500000, 8.750000)" fill="#0073BB" fill-rule="nonzero"><path d="M13.8217363,31.2803301 L13.7368454,31.3532508 L13.7368454,31.3532508 L13.6534426,31.407053 L13.6534426,31.407053 L13.6052878,31.4313839 L13.6052878,31.4313839 L13.5081671,31.4681458 L13.5081671,31.4681458 L13.4513711,31.4828395 L13.4513711,31.4828395 L13.3846755,31.4942127 L13.3846755,31.4942127 L13.3412428,31.498357 L13.3412428,31.498357 L13.241495,31.498357 L13.241495,31.498357 L13.1802045,31.4917588 L13.1802045,31.4917588 L13.1314644,31.4828361 L13.1314644,31.4828361 L13.0652921,31.4652652 L12.9776235,31.4314294 L12.9776235,31.4314294 L12.9293782,31.4070608 L12.9293782,31.4070608 L12.8294824,31.3409596 L12.7610762,31.2803301 L12.7610762,31.2803301 L8.26107616,26.7803301 C7.96818295,26.4874369 7.96818295,26.0125631 8.26107616,25.7196699 C8.52734273,25.4534034 8.94400641,25.4291973 9.2376179,25.6470518 L9.32173634,25.7196699 L12.5814063,28.979 L12.581,19.7495522 L3.5,19.75 C1.6314366,19.75 0.104873551,18.2857224 0.00517886273,16.4420352 L0,16.25 L0,12.25 C0,10.3814366 1.4642776,8.85487355 3.3079648,8.75517886 L3.5,8.75 L11.686,8.74955216 L11.686,10.2495522 L3.5,10.25 C2.4456382,10.25 1.58183488,11.0658778 1.50548574,12.1007377 L1.5,12.25 L1.5,16.25 C1.5,17.3043618 2.31587779,18.1681651 3.35073766,18.2445143 L3.5,18.25 L22.5,18.25 C23.5543618,18.25 24.4181651,17.4341222 24.4945143,16.3992623 L24.5,16.25 L24.5,12.25 C24.5,11.1956382 23.6841222,10.3318349 22.6492623,10.2554857 L22.5,10.25 L15.686,10.2495522 L15.686,8.74955216 L22.5,8.75 C24.3685634,8.75 25.8951264,10.2142776 25.9948211,12.0579648 L26,12.25 L26,16.25 C26,18.1185634 24.5357224,19.6451264 22.6920352,19.7448211 L22.5,19.75 L14.081,19.7495522 L14.0814063,28.899 L17.2610762,25.7196699 L17.3451946,25.6470518 C17.6388061,25.4291973 18.0554698,25.4534034 18.3217363,25.7196699 C18.5880029,25.9859365 18.6122089,26.4026002 18.3943545,26.6962117 L18.3217363,26.7803301 L13.8217363,31.2803301 Z" fill="false"/><polygon points="14.0818291 0 14.0818291 14.5 12.5818291 14.5 12.5818291 0" fill="false"/></g></g><g stroke="none" stroke-width="1" fill="none" fill-rule="evenodd" id="icon-flow-parallel"><g transform="translate(7.794758, 8.750000)" fill="#0073BB" fill-rule="nonzero"><path d="M16.199562,30.9615157 L16.1088907,30.9567289 L16.0428411,30.9462621 L15.9289205,30.9134016 L15.8581395,30.8824655 L15.747534,30.8144639 L15.6634156,30.7418457 L12.1634156,27.2418457 C11.8705224,26.9489525 11.8705224,26.4740788 12.1634156,26.1811856 C12.4296821,25.914919 12.8463458,25.890713 13.1399573,26.1085674 L13.2240758,26.1811856 L15.455,28.412 L15.455,12.999 L4.95524179,12.999 L4.955,28.446 L7.21966991,26.1811856 L7.30378835,26.1085674 C7.59739984,25.890713 8.01406352,25.914919 8.28033009,26.1811856 C8.54659665,26.4474521 8.5708027,26.8641158 8.35294824,27.1577273 L8.28033009,27.2418457 L4.78033009,30.7418457 L4.69621165,30.8144639 L4.689,30.818 C4.66089447,30.8406686 4.6237969,30.8633711 4.58539483,30.8825712 L4.50825575,30.9158403 L4.44163507,30.9367462 L4.36774058,30.9522701 L4.27779844,30.9610057 L4.22212648,30.9610007 L4.09909543,30.9462621 L3.99176083,30.9158467 L3.9143938,30.8824655 L3.82554184,30.8300094 L3.80378835,30.8144639 L3.71966991,30.7418457 L0.219669914,27.2418457 C-0.0732233047,26.9489525 -0.0732233047,26.4740788 0.219669914,26.1811856 C0.485936477,25.914919 0.902600159,25.890713 1.19621165,26.1085674 L1.28033009,26.1811856 L3.455,28.356 L3.45524179,12.25 C3.45524179,11.8703042 3.73739568,11.556509 4.10347124,11.5068466 L4.20524179,11.5 L15.455,11.502 L15.4552418,-1.42108547e-13 L16.9552418,-1.42108547e-13 L16.955,11.495 L28.1555171,11.5 C28.5351143,11.5001394 28.8487603,11.7822674 28.8983985,12.1482549 L28.9052418,12.25 L28.905,28.44 L31.1641955,26.1811856 L31.2483139,26.1085674 C31.5419254,25.890713 31.9585891,25.914919 32.2248557,26.1811856 C32.4911222,26.4474521 32.5153283,26.8641158 32.2974738,27.1577273 L32.2248557,27.2418457 L28.7248557,30.7418457 C28.6845386,30.7821628 28.6407734,30.8169302 28.5945094,30.8461478 L28.5328469,30.8811 L28.4268027,30.9248089 L28.3112733,30.9524264 L28.1887092,30.9615157 L28.1087231,30.9566189 L28.0352714,30.9445058 L27.9277401,30.9126603 L27.8920604,30.8980433 L27.8568141,30.8814079 C27.8351606,30.8704626 27.8145136,30.8587698 27.7943421,30.8460217 C27.7482777,30.8169302 27.7045126,30.7821628 27.6641955,30.7418457 L24.1641955,27.2418457 C23.8713023,26.9489525 23.8713023,26.4740788 24.1641955,26.1811856 C24.4304621,25.914919 24.8471258,25.890713 25.1407372,26.1085674 L25.2248557,26.1811856 L27.405,28.362 L27.4052418,12.999 L16.955,12.992 L16.955,28.389 L19.1634156,26.1811856 L19.247534,26.1085674 C19.5411455,25.890713 19.9578092,25.914919 20.2240758,26.1811856 C20.4903423,26.4474521 20.5145484,26.8641158 20.2966939,27.1577273 L20.2240758,27.2418457 L16.7240758,30.7418457 L16.6399573,30.8144639 L16.636,30.816 L16.589136,30.8490255 L16.5330413,30.8806066 L16.4260228,30.9248089 L16.3532729,30.9444467 L16.2795333,30.9566255 L16.199562,30.9615157 Z" fill="false"/></g></g><g stroke="none" stroke-width="1" fill="none" fill-rule="evenodd" id="icon-generic"><polygon fill="url(#gradient-turquoise)" fill-rule="nonzero" points="0 0 48 0 48 48 0 48"/><g transform="translate(12 9)"><path d="M13.6760974,28.141903 L13.6760974,15.6938097 L24.6478053,9.31940082 L24.6478053,21.7674941 L13.6760974,28.141903 Z M1.35219472,9.31940082 L12.3239026,15.6938097 L12.3239026,28.141903 L1.35219472,21.7674941 L1.35219472,9.31940082 Z M13,1.46518194 L24.229301,7.99063354 L13,14.5160851 L1.77002288,7.99063354 L13,1.46518194 Z M25.6619513,7.25106875 L13.3380487,0.0908297141 C13.1291346,-0.0302765714 12.8708654,-0.0302765714 12.6619513,0.0908297141 L0.338048679,7.25106875 C0.129134595,7.37285541 0,7.5973783 0,7.84027124 L0,22.1600689 C0,22.4029619 0.129134595,22.6281651 0.338048679,22.7492714 L12.6619513,29.9095105 C12.7660703,29.9700636 12.8830352,30 13,30 C13.1169648,30 13.2339297,29.9700636 13.3380487,29.9095105 L25.6619513,22.7492714 C25.8708654,22.6281651 26,22.4029619 26,22.1600689 L26,7.84027124 C26,7.5973783 25.8708654,7.37285541 25.6619513,7.25106875 L25.6619513,7.25106875 Z" fill="#FFFFFF"/></g></g></defs></g><style data-styled="true" data-styled-version="5.3.11">.cTtpGI{cursor:pointer;}/*!sc*/
data-styled.g34[id="sc-koXPp"]{content:"cTtpGI,"}/*!sc*/
.jsFWx{stroke:#555;background-color:#555;stroke-width:1px;}/*!sc*/
data-styled.g35[id="sc-bmzYkS"]{content:"jsFWx,"}/*!sc*/
.iZkxaE{fill:var(--color-text-form-secondary-smwr7a,#687078);}/*!sc*/
data-styled.g63[id="sc-iHbSHJ"]{content:"iZkxaE,"}/*!sc*/
.jVDEHP{font-weight:400;font-size:12px;line-height:16px;font-family:Amazon Ember,Arial,Roboto,Arial,sans-serif;text-shadow:none;fill:var(--color-text-button-primary-default-h1el7o,#16191f);}/*!sc*/
data-styled.g64[id="sc-klVQfs"]{content:"jVDEHP,"}/*!sc*/
.bAjEpG{fill:#fff9cc;stroke:var(--color-text-form-secondary-smwr7a,#687078);stroke-width:0.6px;}/*!sc*/
data-styled.g65[id="sc-bypJrT"]{content:"bAjEpG,"}/*!sc*/
.zsviL{fill:#fff9cc;stroke:var(--color-text-form-secondary-smwr7a,#687078);stroke-width:0.6px;}/*!sc*/
data-styled.g66[id="sc-ddjGPC"]{content:"zsviL,"}/*!sc*/
.eyBinF{stroke:var(--color-border-control-default-9558cz,#687078);stroke-width:1px;fill:var(--color-background-container-content-yrbxur,#ffffff);opacity:0.5;}/*!sc*/
.node &gt; .new-look-state-node.has-errors &gt; .bounding-box &gt; .sc-dSCufp{stroke:var(--color-border-status-error-japsx0,#d13212);fill:var(--color-background-status-error-wgh5bg,#fdf3f1);}/*!sc*/
.selected &gt; .node &gt; .new-look-state-node &gt; .bounding-box &gt; .sc-dSCufp{stroke:var(--color-border-status-info-g4ewkk,#0073bb);fill:var(--color-background-status-info-79eqx5,#f1faff);}/*!sc*/
.selected &gt; .node &gt; .new-look-state-node.has-errors &gt; .bounding-box &gt; .sc-dSCufp{stroke:var(--color-border-status-error-japsx0,#d13212);fill:#fde0da;}/*!sc*/
data-styled.g67[id="sc-dSCufp"]{content:"eyBinF,"}/*!sc*/
</style><style>
.new-look-state-node &gt; rect:first-of-type {
  stroke: #687078;
  stroke-width: 1px;
  fill: #FFFFFF;
}

.new-look-state-node .error-icon circle {
 stroke-linejoin: round;
}

.new-look-state-node .error-icon circle, .new-look-state-node .error-icon path {
 stroke: var(--color-border-status-error-japsx0, #d13212);
 fill: none;
 stroke-width: 2px;
}

.new-look-state-node.has-errors &gt; rect:first-of-type {
 stroke: var(--color-border-status-error-japsx0, #d13212);
 fill: var(--color-background-status-error-wgh5bg, #fdf3f1);
}

.new-look-state-node.has-errors &gt; .bounding-box &gt; .new-look-state-node-sub &gt; rect {
  stroke: var(--color-border-status-error-japsx0, #d13212);
  fill: var(--color-background-status-error-wgh5bg, #fdf3f1);
}

.new-look-state-node .handle path {
  stroke: var(--color-border-dropdown-item-hover-38gqzc, #879596);
  stroke-width: 1px;
  fill: none;
}

.new-look-state-node {
  font-weight: 400;
  font-family: Amazon Ember, Arial, Roboto, Arial, sans-serif;
  text-shadow: none;
}

.new-look-state-node .line1 {
  fill: #687078;
  font-size: 12px;
}

.new-look-state-node .line2 {
  fill: #16191f;
}

.selected.node &gt; .new-look-state-node &gt; rect,
.selected.node &gt; .new-look-state-node &gt; .new-look-state-node &gt; rect,
.selected.node &gt; .new-look-state-node &gt; .bounding-box &gt; rect,
.selected.node &gt; .new-look-state-node.has-errors &gt; rect,
.selected.node &gt; .new-look-state-node.has-errors &gt; .bounding-box &gt; rect,
.selected.node &gt; .new-look-state-node.has-errors &gt; .new-look-state-node &gt; rect,
.selected.node &gt; .new-look-state-node &gt; .bounding-box &gt; .new-look-state-node-sub &gt; rect
 {
  stroke: var(--color-border-status-info-g4ewkk, #0073bb);
  fill: var(--color-background-status-info-79eqx5, #f1faff);
  stroke-width: 1px;
}

.new-look-state-node-sub .item-source.not-specified {
  height: 15px;
  color: #687078;
  font-family: "Amazon Ember";
  font-size: 12px;
  letter-spacing: 0;
  line-height: 16px;
  font-weight: 400;
}
.new-look-state-node-sub .item-source .item-source_name{
  font-weight: 600;
}
.new-look-state-node-sub .item-source.not-specified .item-source_name{
  font-weight: 400;
}

.new-look-state-node-sub .item-source.not-specified {
  font-style: italic;
}

.new-look-state-node-sub &gt; rect,
.new-look-state-node &gt; .bounding-box &gt; rect {
  stroke: var(--color-border-control-default-9558cz, #687078);
  fill: #ffffff;
}

.new-look-graph .drag-source {
  opacity: 0.2;
}

.new-look-graph .edge, .new-look-graph path.starting-connection {
  stroke-width: 1px;
  stroke: var(--color-text-form-secondary-smwr7a, #687078);
  marker-end: url(#large-arrowhead);
}

.new-look-graph .edge-label {
  cursor: pointer;
}

.new-look-graph .edge-label rect {
  stroke-width: 1px;
  stroke: var(--color-border-control-default-9558cz, #687078);
  fill: #fafafa;
}

.new-look-graph .edge-label.selected rect {
  stroke: var(--color-border-status-info-g4ewkk, #0073bb);
  fill: var(--color-background-status-info-79eqx5, #f1faff);
  stroke-width: 0.6px;
}



.new-look-graph .edge-label .label {
  fill: var(--color-text-form-secondary-smwr7a, #687078);
  font-family: Amazon Ember, Arial, Roboto, Arial, sans-serif;
}

/* centering the shape text */
@-moz-document url-prefix() {
  .new-look-graph .shape + text,
  .new-look-graph .edge-label text {
    transform: translateY(3.5px);
  }
}

.new-look-graph .edge path {
  marker-end: url(#large-arrowhead) !important;
}

.new-look-graph .edge.selected path{
  stroke: var(--color-border-status-info-g4ewkk, #0073bb);
  stroke-width: 1.1px;
}

.new-look-graph .edge.dragging-over path, .new-look-graph  g.dragging-over .starting-connection {
  stroke: #5C86FF;
  stroke-width: 2px;
}

.new-look-graph .edge.dragging-over path, .new-look-graph .dragging-over path.starting-connection {
  marker-end: url(#large-highlighted-arrowhead) !important;
}

.new-look-graph .edge.dragging-over .edge-label text {
  fill: #5C86FF;
}

#large-highlighted-arrowhead {
  fill: #5C86FF;
}

#large-highlighted-arrowhead path {
  stroke: none;
}

.new-look-graph .edge.drop-not-supported path, g.drop-not-supported .starting-connection {
  stroke: red;
}

.new-look-graph .edge.drop-not-supported .edge-label text {
  fill: red;
}

.new-look-graph .edge.drop-not-supported path {
  marker-end: url(#large-error-arrowhead) !important;
}

#large-error-arrowhead {
  fill: red;
}

.node-container * &gt; .icon  {
  &gt; rect {
    fill: #fafafa;
  }
  &gt; line {
    stroke: #d5dbdb;
  }
}


.node.Placeholder.dragging-over rect {
  stroke: var(--color-border-status-info-g4ewkk, #0073bb);
  fill: var(--color-background-status-info-79eqx5, #f1faff);
  stroke-width: 2px;
}

.node.Placeholder.dragging-over .label {
  fill: var(--color-text-status-info-7871xj, #0073bb);
}

g.Placeholder rect {
  stroke-dasharray: 5 4;
  stroke: var(--color-border-dropdown-item-hover-38gqzc, #879596);
  fill: #ffffff;
  stroke-width: 1px;
}

g.Placeholder .label {
  font-style: italic;
  fill: var(--color-text-input-placeholder-zd3pu1, #687078);
}

.node.Placeholder.drop-not-supported rect {
  stroke: red;
}

.node.Placeholder.drop-not-supported .label {
  fill: red;
}
</style><style>.line2 { font-size: 14px }</style></svg>